<mxfile host="Electron" modified="2024-04-24T23:21:49.664Z" agent="Mozilla/5.0 (Windows NT 10.0; Win64; x64) AppleWebKit/537.36 (KHTML, like Gecko) draw.io/24.2.5 Chrome/120.0.6099.109 Electron/28.1.0 Safari/537.36" etag="sBqm7aaASAj66bgnnPsa" version="24.2.5" type="device">
  <diagram id="8o7leehhzJAlqTiegunU" name="Página-2">
    <mxGraphModel dx="1857" dy="1107" grid="1" gridSize="10" guides="1" tooltips="1" connect="1" arrows="1" fold="1" page="1" pageScale="1" pageWidth="827" pageHeight="1169" math="0" shadow="0">
      <root>
        <mxCell id="0" />
        <mxCell id="1" parent="0" />
        <mxCell id="G9wo8DBGtmYAE2utD55X-15" style="edgeStyle=orthogonalEdgeStyle;rounded=0;orthogonalLoop=1;jettySize=auto;html=1;entryX=0;entryY=0.5;entryDx=0;entryDy=0;" edge="1" parent="1" source="G9wo8DBGtmYAE2utD55X-1" target="G9wo8DBGtmYAE2utD55X-7">
          <mxGeometry relative="1" as="geometry">
            <Array as="points">
              <mxPoint x="450" y="370" />
              <mxPoint x="450" y="185" />
            </Array>
          </mxGeometry>
        </mxCell>
        <mxCell id="G9wo8DBGtmYAE2utD55X-16" style="edgeStyle=orthogonalEdgeStyle;rounded=0;orthogonalLoop=1;jettySize=auto;html=1;" edge="1" parent="1" source="G9wo8DBGtmYAE2utD55X-1" target="G9wo8DBGtmYAE2utD55X-6">
          <mxGeometry relative="1" as="geometry">
            <Array as="points">
              <mxPoint x="450" y="370" />
              <mxPoint x="450" y="270" />
            </Array>
          </mxGeometry>
        </mxCell>
        <mxCell id="G9wo8DBGtmYAE2utD55X-17" style="edgeStyle=orthogonalEdgeStyle;rounded=0;orthogonalLoop=1;jettySize=auto;html=1;entryX=0;entryY=0.5;entryDx=0;entryDy=0;" edge="1" parent="1" source="G9wo8DBGtmYAE2utD55X-1" target="G9wo8DBGtmYAE2utD55X-8">
          <mxGeometry relative="1" as="geometry" />
        </mxCell>
        <mxCell id="G9wo8DBGtmYAE2utD55X-18" style="edgeStyle=orthogonalEdgeStyle;rounded=0;orthogonalLoop=1;jettySize=auto;html=1;entryX=0;entryY=0.5;entryDx=0;entryDy=0;" edge="1" parent="1" source="G9wo8DBGtmYAE2utD55X-1" target="G9wo8DBGtmYAE2utD55X-12">
          <mxGeometry relative="1" as="geometry" />
        </mxCell>
        <mxCell id="G9wo8DBGtmYAE2utD55X-19" style="edgeStyle=orthogonalEdgeStyle;rounded=0;orthogonalLoop=1;jettySize=auto;html=1;entryX=0;entryY=0.5;entryDx=0;entryDy=0;" edge="1" parent="1" source="G9wo8DBGtmYAE2utD55X-1" target="G9wo8DBGtmYAE2utD55X-9">
          <mxGeometry relative="1" as="geometry" />
        </mxCell>
        <mxCell id="G9wo8DBGtmYAE2utD55X-20" style="edgeStyle=orthogonalEdgeStyle;rounded=0;orthogonalLoop=1;jettySize=auto;html=1;exitX=0.5;exitY=0.5;exitDx=0;exitDy=0;exitPerimeter=0;entryX=0;entryY=0.5;entryDx=0;entryDy=0;" edge="1" parent="1" source="G9wo8DBGtmYAE2utD55X-1" target="G9wo8DBGtmYAE2utD55X-10">
          <mxGeometry relative="1" as="geometry" />
        </mxCell>
        <mxCell id="G9wo8DBGtmYAE2utD55X-25" style="edgeStyle=orthogonalEdgeStyle;rounded=0;orthogonalLoop=1;jettySize=auto;html=1;entryX=0;entryY=0.5;entryDx=0;entryDy=0;" edge="1" parent="1" source="G9wo8DBGtmYAE2utD55X-1" target="G9wo8DBGtmYAE2utD55X-24">
          <mxGeometry relative="1" as="geometry">
            <Array as="points">
              <mxPoint x="450" y="370" />
              <mxPoint x="450" y="895" />
            </Array>
          </mxGeometry>
        </mxCell>
        <mxCell id="G9wo8DBGtmYAE2utD55X-29" style="edgeStyle=orthogonalEdgeStyle;rounded=0;orthogonalLoop=1;jettySize=auto;html=1;" edge="1" parent="1" source="G9wo8DBGtmYAE2utD55X-1" target="G9wo8DBGtmYAE2utD55X-28">
          <mxGeometry relative="1" as="geometry" />
        </mxCell>
        <mxCell id="G9wo8DBGtmYAE2utD55X-31" style="edgeStyle=orthogonalEdgeStyle;rounded=0;orthogonalLoop=1;jettySize=auto;html=1;entryX=0;entryY=0.5;entryDx=0;entryDy=0;" edge="1" parent="1" source="G9wo8DBGtmYAE2utD55X-1" target="G9wo8DBGtmYAE2utD55X-30">
          <mxGeometry relative="1" as="geometry" />
        </mxCell>
        <mxCell id="G9wo8DBGtmYAE2utD55X-1" value="Usuario" style="shape=umlActor;verticalLabelPosition=bottom;verticalAlign=top;html=1;" vertex="1" parent="1">
          <mxGeometry x="310" y="340" width="30" height="60" as="geometry" />
        </mxCell>
        <mxCell id="G9wo8DBGtmYAE2utD55X-21" style="edgeStyle=orthogonalEdgeStyle;rounded=0;orthogonalLoop=1;jettySize=auto;html=1;entryX=0;entryY=0.5;entryDx=0;entryDy=0;" edge="1" parent="1" source="G9wo8DBGtmYAE2utD55X-2" target="G9wo8DBGtmYAE2utD55X-5">
          <mxGeometry relative="1" as="geometry" />
        </mxCell>
        <mxCell id="G9wo8DBGtmYAE2utD55X-35" style="edgeStyle=orthogonalEdgeStyle;rounded=0;orthogonalLoop=1;jettySize=auto;html=1;entryX=0;entryY=0.5;entryDx=0;entryDy=0;" edge="1" parent="1" source="G9wo8DBGtmYAE2utD55X-2" target="G9wo8DBGtmYAE2utD55X-26">
          <mxGeometry relative="1" as="geometry" />
        </mxCell>
        <mxCell id="G9wo8DBGtmYAE2utD55X-36" style="edgeStyle=orthogonalEdgeStyle;rounded=0;orthogonalLoop=1;jettySize=auto;html=1;entryX=0;entryY=0.5;entryDx=0;entryDy=0;" edge="1" parent="1" source="G9wo8DBGtmYAE2utD55X-2" target="G9wo8DBGtmYAE2utD55X-27">
          <mxGeometry relative="1" as="geometry" />
        </mxCell>
        <mxCell id="G9wo8DBGtmYAE2utD55X-37" style="edgeStyle=orthogonalEdgeStyle;rounded=0;orthogonalLoop=1;jettySize=auto;html=1;entryX=0;entryY=0.5;entryDx=0;entryDy=0;" edge="1" parent="1" source="G9wo8DBGtmYAE2utD55X-2" target="G9wo8DBGtmYAE2utD55X-32">
          <mxGeometry relative="1" as="geometry" />
        </mxCell>
        <mxCell id="G9wo8DBGtmYAE2utD55X-38" style="edgeStyle=orthogonalEdgeStyle;rounded=0;orthogonalLoop=1;jettySize=auto;html=1;entryX=0;entryY=0.5;entryDx=0;entryDy=0;" edge="1" parent="1" source="G9wo8DBGtmYAE2utD55X-2" target="G9wo8DBGtmYAE2utD55X-33">
          <mxGeometry relative="1" as="geometry" />
        </mxCell>
        <mxCell id="G9wo8DBGtmYAE2utD55X-44" style="edgeStyle=orthogonalEdgeStyle;rounded=0;orthogonalLoop=1;jettySize=auto;html=1;entryX=0;entryY=0.5;entryDx=0;entryDy=0;" edge="1" parent="1" source="G9wo8DBGtmYAE2utD55X-2" target="G9wo8DBGtmYAE2utD55X-42">
          <mxGeometry relative="1" as="geometry" />
        </mxCell>
        <mxCell id="G9wo8DBGtmYAE2utD55X-45" style="edgeStyle=orthogonalEdgeStyle;rounded=0;orthogonalLoop=1;jettySize=auto;html=1;entryX=0;entryY=0.5;entryDx=0;entryDy=0;" edge="1" parent="1" source="G9wo8DBGtmYAE2utD55X-2" target="G9wo8DBGtmYAE2utD55X-43">
          <mxGeometry relative="1" as="geometry">
            <Array as="points">
              <mxPoint x="1100" y="375" />
              <mxPoint x="1100" y="285" />
            </Array>
          </mxGeometry>
        </mxCell>
        <mxCell id="G9wo8DBGtmYAE2utD55X-47" style="edgeStyle=orthogonalEdgeStyle;rounded=0;orthogonalLoop=1;jettySize=auto;html=1;entryX=0;entryY=0.5;entryDx=0;entryDy=0;" edge="1" parent="1" source="G9wo8DBGtmYAE2utD55X-2" target="G9wo8DBGtmYAE2utD55X-46">
          <mxGeometry relative="1" as="geometry" />
        </mxCell>
        <mxCell id="G9wo8DBGtmYAE2utD55X-2" value="Administrador" style="shape=umlActor;verticalLabelPosition=bottom;verticalAlign=top;html=1;" vertex="1" parent="1">
          <mxGeometry x="960" y="345" width="30" height="60" as="geometry" />
        </mxCell>
        <mxCell id="G9wo8DBGtmYAE2utD55X-5" value="Remover acesso" style="ellipse;whiteSpace=wrap;html=1;" vertex="1" parent="1">
          <mxGeometry x="1212" y="440" width="140" height="70" as="geometry" />
        </mxCell>
        <mxCell id="G9wo8DBGtmYAE2utD55X-6" value="Login" style="ellipse;whiteSpace=wrap;html=1;" vertex="1" parent="1">
          <mxGeometry x="564" y="230" width="140" height="70" as="geometry" />
        </mxCell>
        <mxCell id="G9wo8DBGtmYAE2utD55X-7" value="Cadastrar" style="ellipse;whiteSpace=wrap;html=1;" vertex="1" parent="1">
          <mxGeometry x="568" y="150" width="140" height="70" as="geometry" />
        </mxCell>
        <mxCell id="G9wo8DBGtmYAE2utD55X-8" value="Publicar livro para empréstimo" style="ellipse;whiteSpace=wrap;html=1;" vertex="1" parent="1">
          <mxGeometry x="568" y="420" width="140" height="70" as="geometry" />
        </mxCell>
        <mxCell id="G9wo8DBGtmYAE2utD55X-9" value="Remover Livros do empréstimo" style="ellipse;whiteSpace=wrap;html=1;" vertex="1" parent="1">
          <mxGeometry x="564" y="590" width="140" height="70" as="geometry" />
        </mxCell>
        <mxCell id="G9wo8DBGtmYAE2utD55X-10" value="Solicitar empréstimo de livro" style="ellipse;whiteSpace=wrap;html=1;" vertex="1" parent="1">
          <mxGeometry x="564" y="770" width="140" height="70" as="geometry" />
        </mxCell>
        <mxCell id="G9wo8DBGtmYAE2utD55X-12" value="Verificar lista de livros disponiveis" style="ellipse;whiteSpace=wrap;html=1;" vertex="1" parent="1">
          <mxGeometry x="564" y="510" width="140" height="70" as="geometry" />
        </mxCell>
        <mxCell id="G9wo8DBGtmYAE2utD55X-24" value="Avaliar usuário&amp;nbsp;" style="ellipse;whiteSpace=wrap;html=1;" vertex="1" parent="1">
          <mxGeometry x="568" y="860" width="140" height="70" as="geometry" />
        </mxCell>
        <mxCell id="G9wo8DBGtmYAE2utD55X-26" value="Bloquear usuario" style="ellipse;whiteSpace=wrap;html=1;" vertex="1" parent="1">
          <mxGeometry x="1212" y="530" width="140" height="70" as="geometry" />
        </mxCell>
        <mxCell id="G9wo8DBGtmYAE2utD55X-27" value="Desbloquear usuario" style="ellipse;whiteSpace=wrap;html=1;" vertex="1" parent="1">
          <mxGeometry x="1212" y="610" width="140" height="70" as="geometry" />
        </mxCell>
        <mxCell id="G9wo8DBGtmYAE2utD55X-28" value="Editar dados" style="ellipse;whiteSpace=wrap;html=1;" vertex="1" parent="1">
          <mxGeometry x="564" y="320" width="140" height="70" as="geometry" />
        </mxCell>
        <mxCell id="G9wo8DBGtmYAE2utD55X-30" value="Abrir reclamaçao sobre emprestimo" style="ellipse;whiteSpace=wrap;html=1;" vertex="1" parent="1">
          <mxGeometry x="564" y="680" width="140" height="70" as="geometry" />
        </mxCell>
        <mxCell id="G9wo8DBGtmYAE2utD55X-32" value="Visualizar reclamações de emprestimo" style="ellipse;whiteSpace=wrap;html=1;" vertex="1" parent="1">
          <mxGeometry x="1208" y="700" width="140" height="70" as="geometry" />
        </mxCell>
        <mxCell id="G9wo8DBGtmYAE2utD55X-33" value="Aceitar reclamações de emprestimo" style="ellipse;whiteSpace=wrap;html=1;" vertex="1" parent="1">
          <mxGeometry x="1208" y="790" width="140" height="70" as="geometry" />
        </mxCell>
        <mxCell id="G9wo8DBGtmYAE2utD55X-39" value="&lt;font style=&quot;font-size: 23px;&quot;&gt;Sistema de emprestimos de livros em escolas&lt;/font&gt;" style="text;html=1;align=center;verticalAlign=middle;whiteSpace=wrap;rounded=0;" vertex="1" parent="1">
          <mxGeometry x="660" y="80" width="540" height="30" as="geometry" />
        </mxCell>
        <mxCell id="G9wo8DBGtmYAE2utD55X-42" value="Cadastrar" style="ellipse;whiteSpace=wrap;html=1;" vertex="1" parent="1">
          <mxGeometry x="1208" y="170" width="140" height="70" as="geometry" />
        </mxCell>
        <mxCell id="G9wo8DBGtmYAE2utD55X-43" value="Login" style="ellipse;whiteSpace=wrap;html=1;" vertex="1" parent="1">
          <mxGeometry x="1210" y="250" width="140" height="70" as="geometry" />
        </mxCell>
        <mxCell id="G9wo8DBGtmYAE2utD55X-46" value="Gerenciar acessos" style="ellipse;whiteSpace=wrap;html=1;" vertex="1" parent="1">
          <mxGeometry x="1210" y="350" width="140" height="70" as="geometry" />
        </mxCell>
      </root>
    </mxGraphModel>
  </diagram>
</mxfile>
